<?xml version="1.0" encoding="UTF-8" ?>
<!DOCTYPE svg PUBLIC "-//W3C//DTD SVG 1.1//EN" "http://www.w3.org/Graphics/SVG/1.1/DTD/svg11.dtd">
<svg width="255pt" height="197pt" viewBox="0 0 255 197" version="1.1" xmlns="http://www.w3.org/2000/svg">
<g id="#fffffeff">
<path fill="#fffffe" opacity="1.00" d=" M 104.53 172.15 C 105.00 173.58 105.47 175.02 105.94 176.46 C 105.23 176.48 103.81 176.51 103.10 176.52 C 103.57 175.06 104.05 173.60 104.53 172.15 Z" />
</g>
<g id="#c0a061ff">
<path fill="#c0a061" opacity="1.00" d=" M 200.70 42.53 C 208.18 39.80 216.31 38.69 224.23 39.76 C 227.18 40.12 230.23 41.18 233.17 40.12 C 236.98 39.12 241.77 38.10 245.07 40.86 C 246.87 42.55 245.55 44.84 244.95 46.75 C 243.20 47.04 241.45 47.33 239.70 47.59 C 239.47 46.53 239.25 45.47 239.03 44.41 C 239.91 44.31 241.65 44.12 242.52 44.02 C 241.75 44.31 240.20 44.90 239.43 45.19 C 241.57 48.92 246.64 44.87 244.65 41.53 C 240.99 38.40 235.84 40.04 231.80 41.42 C 236.09 44.59 237.54 51.34 233.21 55.10 C 227.76 60.78 221.74 65.93 215.26 70.40 C 213.34 71.78 210.89 70.98 208.80 70.52 C 203.71 68.97 198.82 66.81 194.19 64.21 C 194.15 69.25 194.13 74.30 194.26 79.34 C 197.22 78.41 200.02 77.01 203.03 76.24 C 206.33 76.64 209.17 78.59 212.09 80.05 C 209.33 81.02 206.62 82.29 203.69 82.69 C 200.49 82.45 197.43 81.33 194.26 80.85 C 194.18 85.68 194.18 90.52 194.17 95.35 C 199.89 94.42 205.76 94.08 211.45 95.35 C 219.04 96.82 226.69 95.17 234.05 93.37 C 228.33 97.22 222.04 100.07 215.90 103.16 C 218.02 106.25 220.28 110.32 218.05 113.97 C 213.63 120.48 208.70 126.67 203.37 132.44 C 201.13 135.16 197.45 135.50 194.27 136.31 C 194.21 141.68 194.16 147.07 194.39 152.44 C 195.46 151.53 197.41 151.24 197.79 149.75 C 197.62 147.54 196.63 145.51 196.10 143.39 C 197.73 145.28 199.81 147.15 200.02 149.80 C 198.41 151.35 196.54 152.58 194.75 153.91 C 195.34 154.42 195.92 154.93 196.52 155.44 C 195.20 156.94 193.97 158.51 192.82 160.14 C 191.54 158.35 190.16 156.62 188.71 154.97 C 189.46 154.51 190.22 154.05 190.97 153.60 C 189.04 152.42 187.11 151.25 185.18 150.07 C 186.46 147.70 187.80 145.37 189.25 143.10 C 188.88 145.40 188.27 147.67 188.20 150.01 C 188.95 150.90 189.82 151.67 190.66 152.47 C 190.86 147.09 191.28 141.72 191.21 136.34 C 181.23 136.53 171.29 135.44 161.56 133.22 C 161.42 139.06 156.55 142.89 152.49 146.35 C 146.30 147.37 139.81 146.45 133.66 145.24 C 135.77 152.14 127.53 158.63 121.04 156.97 C 116.46 155.67 111.97 153.90 107.92 151.36 C 106.47 149.73 104.96 147.84 102.71 147.37 C 100.41 147.60 98.46 149.08 96.42 150.03 C 98.02 150.74 99.64 151.44 101.25 152.13 C 99.68 152.21 98.10 152.29 96.52 152.35 C 96.22 154.42 95.97 156.50 95.73 158.58 C 97.04 158.44 98.35 158.29 99.67 158.15 C 99.58 160.15 99.51 162.16 99.46 164.17 C 97.47 163.00 95.49 161.83 93.47 160.72 C 94.00 160.43 95.06 159.84 95.59 159.55 C 95.06 156.51 95.09 153.35 96.75 150.65 C 92.48 146.88 86.65 145.91 81.20 147.20 C 79.34 147.04 79.12 149.07 78.39 150.30 C 83.85 152.15 89.54 150.88 95.10 150.45 C 89.60 152.45 83.59 152.13 77.96 150.90 C 78.43 149.51 77.79 147.16 79.72 146.81 C 85.29 145.57 91.25 146.26 96.29 149.00 C 98.24 148.07 100.18 147.13 102.12 146.20 C 97.37 142.78 92.95 138.91 88.27 135.40 C 86.69 135.51 85.11 135.62 83.53 135.71 C 84.49 135.44 86.41 134.90 87.37 134.63 C 82.12 130.80 75.70 128.64 69.15 129.43 C 76.67 125.99 85.15 128.17 92.11 131.85 C 93.94 133.10 96.12 132.35 98.10 132.05 C 91.78 128.09 84.93 125.09 78.34 121.62 C 75.88 120.46 73.52 118.99 70.87 118.34 C 68.00 118.13 65.15 118.69 62.30 118.80 C 64.57 118.26 66.87 117.80 69.16 117.31 C 62.91 114.02 55.03 109.83 48.15 113.82 C 48.00 114.76 47.72 116.65 47.57 117.59 C 47.34 116.95 46.87 115.67 46.63 115.03 C 47.02 113.92 47.40 112.82 47.78 111.72 C 53.36 109.49 59.56 108.81 65.40 110.41 C 69.45 111.20 73.07 113.34 77.06 114.31 C 79.96 114.08 82.63 112.80 85.38 111.99 C 78.27 108.16 70.81 105.06 63.24 102.26 C 55.97 106.16 47.57 106.28 39.56 105.42 C 46.88 105.07 55.12 106.35 61.30 101.45 C 54.27 98.62 46.80 95.25 39.04 96.40 C 36.46 96.70 34.73 98.78 33.15 100.62 C 34.30 101.94 35.44 103.28 36.55 104.64 C 34.44 103.64 32.61 102.20 31.37 100.20 C 32.88 97.08 34.91 94.07 38.40 92.98 C 37.96 92.56 37.51 92.14 37.06 91.73 C 35.78 93.33 34.30 94.74 32.62 95.95 C 35.14 90.16 40.32 84.28 37.63 77.57 C 36.72 77.32 34.89 76.80 33.98 76.54 C 38.06 73.02 41.78 69.10 45.26 64.99 C 44.48 64.88 42.92 64.65 42.13 64.54 C 48.74 62.48 54.18 58.04 59.09 53.32 C 57.06 53.03 55.05 52.71 53.03 52.37 C 57.23 52.11 61.45 52.25 65.64 52.60 C 65.30 53.19 64.61 54.38 64.26 54.97 C 65.63 58.85 67.70 62.46 69.05 66.36 L 69.79 63.48 C 70.31 63.97 70.83 64.46 71.35 64.96 C 68.38 67.02 69.47 70.94 69.25 73.99 C 69.61 80.30 68.73 86.56 68.08 92.81 C 73.56 94.31 78.99 95.98 84.49 97.43 C 87.66 98.36 91.05 98.95 93.78 100.95 L 94.32 100.28 C 99.27 103.12 104.94 103.95 110.32 105.59 C 120.56 109.87 131.17 113.52 142.17 115.23 C 146.53 115.96 150.64 117.68 154.99 118.48 C 167.09 120.35 179.36 121.59 191.60 120.25 C 191.65 118.17 191.70 116.10 191.75 114.03 C 190.10 114.23 188.45 114.44 186.80 114.61 C 188.32 114.07 189.84 113.54 191.36 113.01 C 188.71 111.64 186.01 110.37 183.39 108.97 C 186.21 109.85 188.97 110.91 191.77 111.87 C 192.20 107.52 187.30 107.83 184.35 107.14 C 182.15 108.93 180.08 111.45 177.06 111.73 C 177.81 110.84 178.92 110.36 179.87 109.71 C 179.71 109.43 179.38 108.87 179.22 108.59 C 180.75 108.10 182.27 107.59 183.80 107.09 C 183.25 105.01 182.69 102.93 182.19 100.84 C 184.44 98.96 186.82 97.25 189.28 95.66 C 187.65 95.51 186.02 95.37 184.39 95.24 C 181.70 99.92 177.84 103.79 173.43 106.86 C 175.16 107.03 176.89 107.22 178.62 107.44 C 173.11 108.05 166.33 106.92 162.12 111.27 C 162.20 111.55 162.38 112.13 162.46 112.41 C 166.66 114.45 171.42 112.67 175.80 112.30 C 173.94 114.29 170.54 113.69 168.00 113.92 C 165.73 113.66 162.51 114.43 161.11 112.12 C 161.54 111.06 162.00 110.00 162.49 108.96 C 157.74 108.78 153.15 107.51 148.60 106.23 C 149.92 108.40 151.35 110.50 152.82 112.57 C 149.13 109.38 147.32 104.40 142.66 102.28 C 139.05 105.51 135.72 109.04 132.86 112.95 C 126.96 112.60 125.61 106.00 122.01 102.47 C 121.14 102.41 119.40 102.29 118.53 102.23 C 119.26 101.77 120.72 100.87 121.45 100.41 C 121.51 93.93 121.42 87.46 121.42 80.98 C 118.56 81.62 115.82 82.69 112.98 83.37 C 110.70 82.81 108.58 81.77 106.42 80.87 C 106.14 84.02 106.77 87.76 104.40 90.27 C 101.51 93.37 98.26 96.15 95.50 99.39 C 93.17 98.98 90.39 99.37 88.59 97.51 C 86.07 95.30 83.50 93.14 80.78 91.16 C 80.53 82.40 82.18 73.52 79.89 64.90 C 76.63 65.93 73.41 67.08 70.11 67.96 C 73.19 66.52 76.37 65.31 79.47 63.91 C 78.75 62.57 78.07 61.20 77.08 60.04 C 75.56 60.75 74.16 61.68 72.75 62.59 C 72.14 62.81 70.91 63.25 70.30 63.47 C 73.87 60.63 76.77 57.09 80.11 54.00 C 81.38 55.14 82.93 54.70 83.74 53.30 C 83.88 53.50 84.17 53.89 84.31 54.08 C 84.53 51.96 85.86 51.03 87.88 51.38 C 99.17 51.06 109.89 47.45 120.57 44.17 C 112.02 48.10 102.71 50.30 93.35 51.13 C 90.45 51.34 87.78 52.52 85.06 53.44 C 86.38 55.59 87.76 57.69 89.17 59.77 C 90.65 59.58 92.13 59.39 93.62 59.22 C 92.41 59.79 91.19 60.34 89.97 60.89 C 90.70 63.61 91.73 66.26 92.18 69.04 C 92.99 75.41 91.74 81.87 92.77 88.21 C 93.19 91.23 95.26 93.58 97.07 95.88 C 99.84 93.32 103.83 90.83 102.81 86.43 C 99.94 83.77 96.68 81.57 93.84 78.89 C 93.82 78.46 93.78 77.61 93.76 77.18 C 97.63 72.89 102.40 69.52 106.22 65.17 C 102.66 63.82 99.00 62.66 95.18 62.45 C 95.19 63.44 95.23 65.43 95.24 66.42 C 97.44 66.72 99.39 65.81 100.97 64.34 C 100.68 65.39 100.40 66.44 100.13 67.50 C 97.72 67.69 94.53 68.46 93.04 65.91 C 90.88 62.46 94.43 58.50 97.88 57.90 C 105.97 56.20 113.97 59.36 122.02 59.87 C 127.08 60.21 133.41 61.71 136.99 57.01 C 131.41 50.36 121.93 50.02 113.96 50.93 C 108.16 51.46 103.08 54.54 97.57 56.13 C 103.82 51.87 111.53 50.19 118.97 49.65 C 125.12 49.32 131.69 50.54 136.49 54.64 C 138.65 56.71 140.12 60.03 139.11 62.99 C 137.16 65.78 133.68 66.61 130.65 67.66 C 130.76 78.18 130.59 88.70 130.95 99.22 C 132.96 98.85 134.98 98.49 136.99 98.13 C 131.13 87.75 133.35 74.52 140.11 65.13 C 142.52 62.25 145.67 60.14 148.61 57.84 C 155.29 56.82 162.05 56.53 168.79 56.24 C 166.98 56.58 165.16 56.89 163.33 57.15 C 167.22 58.21 170.87 59.93 174.48 61.67 L 175.02 59.16 C 175.74 60.41 176.19 61.78 176.60 63.16 C 178.87 64.50 181.47 64.91 184.07 64.92 C 184.24 64.18 184.59 62.69 184.76 61.95 C 185.39 63.03 186.01 64.11 186.64 65.19 C 184.67 67.11 182.14 68.16 179.47 68.66 C 180.58 70.73 181.26 72.99 181.59 75.31 C 179.10 74.42 176.86 72.64 174.22 72.28 C 169.47 77.04 164.40 81.50 159.61 86.23 C 165.79 83.46 172.04 80.83 178.28 78.19 C 182.78 82.27 185.12 88.16 185.38 94.17 C 187.23 94.44 189.09 94.70 190.96 94.95 C 189.80 87.84 186.17 81.24 180.10 77.18 C 184.27 72.59 188.56 68.11 192.81 63.60 C 188.49 59.97 184.49 55.96 181.19 51.37 C 180.33 51.48 178.63 51.70 177.77 51.81 C 177.74 54.13 177.67 56.44 177.57 58.75 C 177.08 58.90 176.08 59.20 175.58 59.35 C 176.59 57.18 176.90 54.80 177.13 52.44 C 173.76 53.10 170.40 53.75 167.04 54.45 C 168.59 53.47 170.06 52.35 170.88 50.66 C 171.02 51.22 171.28 52.35 171.42 52.91 C 173.08 52.50 174.75 52.10 176.42 51.69 C 174.71 46.10 168.07 44.96 163.03 45.84 C 159.07 46.59 157.76 52.14 160.56 54.88 C 162.66 54.54 164.76 54.24 166.88 54.01 C 165.10 54.63 163.31 55.18 161.51 55.74 C 158.99 55.78 156.47 55.85 153.95 55.84 C 155.51 55.48 157.09 55.15 158.66 54.83 C 158.61 52.39 157.54 49.50 159.33 47.43 C 161.85 43.97 166.92 44.21 170.57 45.46 C 174.37 46.51 176.29 50.78 180.37 51.20 C 177.26 46.13 171.45 43.77 165.93 42.35 C 160.91 41.17 155.03 41.40 150.98 44.97 C 147.93 47.44 147.97 51.69 147.30 55.21 C 148.25 55.47 150.17 56.01 151.12 56.27 C 146.01 57.02 140.97 54.96 136.38 52.96 C 136.34 52.78 136.25 52.41 136.21 52.22 C 139.69 53.11 142.94 54.73 146.37 55.79 C 147.07 51.49 147.56 46.39 151.52 43.72 C 158.97 38.56 168.98 39.89 176.95 43.09 C 180.72 44.40 183.73 47.93 187.87 47.98 L 188.54 47.71 C 186.36 46.06 184.00 44.69 181.82 43.07 C 184.70 44.19 187.37 45.79 189.92 47.53 C 190.42 46.94 190.93 46.34 191.43 45.74 C 191.96 47.00 192.59 48.21 193.31 49.37 C 194.67 49.81 196.03 50.30 197.37 50.84 C 194.69 50.24 192.07 48.56 189.25 49.18 C 189.16 49.45 188.97 50.01 188.88 50.28 C 196.89 56.38 206.85 60.31 216.98 60.42 C 223.73 59.66 231.70 57.47 234.62 50.57 C 231.01 52.38 227.09 54.16 222.93 53.52 C 219.24 53.49 215.86 50.49 212.15 51.89 C 207.37 53.34 202.25 52.79 197.54 51.32 C 203.16 51.75 209.14 53.03 214.43 50.30 C 211.98 48.98 209.64 47.35 206.95 46.57 C 204.45 46.14 201.90 46.53 199.38 46.46 C 204.80 44.61 210.52 46.48 215.04 49.61 C 217.16 49.03 219.28 48.44 221.42 47.91 C 219.33 48.78 217.23 49.63 215.32 50.85 C 219.40 52.48 223.91 54.08 228.30 52.55 C 230.03 51.84 233.05 51.67 232.95 49.19 C 229.26 47.96 225.33 47.95 221.52 47.31 C 226.22 47.04 230.84 47.96 235.39 49.01 C 234.33 46.53 233.09 44.14 231.69 41.85 C 228.64 42.81 225.67 43.99 222.68 45.13 C 224.88 43.87 227.10 42.66 229.26 41.34 C 219.80 38.42 210.11 40.89 200.70 42.53 M 46.92 65.95 C 45.09 68.40 45.48 71.61 45.24 74.47 C 49.39 73.64 53.50 72.42 57.76 72.26 C 53.81 73.72 49.66 74.54 45.49 75.08 C 45.36 79.91 45.61 84.74 45.87 89.57 C 43.40 90.12 40.92 90.63 38.42 91.01 C 39.02 91.44 39.61 91.86 40.22 92.27 C 48.52 88.88 57.55 91.45 66.14 91.84 C 63.75 87.38 58.99 85.45 54.39 84.09 C 54.43 83.85 54.52 83.37 54.56 83.13 C 56.54 81.54 58.60 79.60 58.59 76.85 C 58.70 70.77 58.14 64.25 54.48 59.15 C 51.83 61.25 48.92 63.17 46.92 65.95 M 155.82 61.60 C 152.73 64.27 149.36 66.85 147.56 70.63 C 143.34 78.34 144.66 87.68 147.68 95.57 C 155.10 88.31 162.65 81.17 169.77 73.63 C 172.08 71.12 170.71 67.43 168.70 65.22 C 165.88 61.11 160.38 59.58 155.82 61.60 M 105.64 79.73 C 108.06 78.66 110.43 77.46 112.98 76.70 C 115.84 77.29 118.54 78.48 121.45 78.92 C 121.41 75.04 121.39 71.17 121.53 67.30 C 117.07 66.63 112.54 65.70 108.02 66.02 C 103.80 69.24 105.57 75.20 105.64 79.73 M 161.43 87.52 C 155.79 87.45 152.18 92.24 148.65 95.90 C 157.35 94.33 166.19 94.12 175.00 94.01 C 173.89 87.85 166.60 86.64 161.43 87.52 M 148.41 97.06 C 150.21 100.15 153.54 97.82 156.16 97.53 C 159.78 96.48 163.43 97.81 166.45 99.80 C 161.68 98.49 156.25 97.07 151.70 99.83 C 150.85 100.81 152.40 101.47 152.88 102.18 C 155.86 104.80 159.58 106.60 163.40 107.61 C 167.66 107.94 172.28 106.35 175.09 103.04 C 177.16 100.70 176.01 97.38 175.85 94.62 C 166.69 95.26 157.37 94.69 148.41 97.06 M 194.34 98.37 C 194.35 101.50 194.28 104.64 194.22 107.77 C 195.12 107.69 196.93 107.52 197.84 107.44 C 196.28 108.31 194.81 109.29 193.41 110.40 C 194.69 110.45 197.26 110.55 198.54 110.60 C 196.94 111.07 195.35 111.54 193.76 112.02 C 194.33 112.32 195.47 112.92 196.03 113.23 C 195.60 113.49 194.73 114.01 194.30 114.28 C 194.26 116.12 194.23 117.96 194.20 119.81 C 201.17 119.25 208.72 118.84 214.62 114.66 C 218.12 112.30 217.99 106.76 214.93 104.10 C 209.37 99.12 201.58 97.77 194.34 98.37 M 130.78 100.26 C 132.27 102.63 133.90 104.91 135.64 107.10 C 137.57 105.34 139.50 103.60 141.39 101.80 C 139.96 100.78 138.59 99.62 136.97 98.89 C 134.85 99.07 132.82 99.71 130.78 100.26 M 185.25 105.11 C 187.34 104.25 189.40 103.30 191.41 102.28 C 191.35 101.42 191.21 99.70 191.14 98.83 C 188.32 100.06 185.33 101.53 185.25 105.11 M 185.72 106.12 C 187.57 106.96 189.43 107.78 191.31 108.58 C 191.40 106.71 191.50 104.84 191.58 102.97 C 189.62 104.00 187.66 105.05 185.72 106.12 M 78.47 115.10 C 84.38 118.03 90.74 119.85 96.88 122.22 C 101.98 123.94 106.89 126.29 112.14 127.54 C 116.95 127.69 121.67 126.26 126.36 125.36 C 113.97 121.09 101.35 117.49 88.99 113.14 C 85.40 111.68 81.79 113.98 78.47 115.10 M 113.62 128.35 C 121.73 132.59 130.87 134.20 139.60 136.70 C 145.56 138.56 152.05 139.05 158.04 137.05 C 158.60 135.97 158.75 134.75 159.05 133.60 C 152.98 131.06 146.39 130.36 140.08 128.63 C 136.07 127.81 132.17 126.21 128.04 126.17 C 123.19 126.56 118.43 127.64 113.62 128.35 M 94.69 133.34 C 102.10 138.68 109.49 144.19 117.78 148.11 C 122.00 149.98 127.03 152.11 131.49 149.66 C 133.66 149.27 133.20 146.28 131.57 145.45 C 125.78 142.12 118.74 142.68 112.43 143.97 C 115.20 143.31 118.01 142.72 120.63 141.57 C 116.25 139.88 111.80 138.39 107.61 136.27 C 103.50 134.53 99.32 131.09 94.69 133.34 Z" />
<path fill="#c0a061" opacity="1.00" d=" M 160.40 50.93 C 161.75 46.73 166.41 46.72 169.71 48.39 C 167.61 48.34 165.51 48.22 163.42 48.14 C 162.42 49.09 161.42 50.01 160.40 50.93 Z" />
<path fill="#c0a061" opacity="1.00" d=" M 164.27 50.23 C 166.02 50.64 164.31 52.71 163.14 52.19 C 161.36 51.76 163.07 49.71 164.27 50.23 Z" />
<path fill="#c0a061" opacity="1.00" d=" M 134.68 51.36 C 134.90 51.69 134.90 51.69 134.68 51.36 Z" />
<path fill="#c0a061" opacity="1.00" d=" M 159.85 100.47 C 160.63 100.60 161.43 100.74 162.22 100.87 C 161.61 101.17 160.38 101.76 159.77 102.06 C 158.38 105.10 162.92 103.98 164.58 104.01 C 165.10 102.75 165.65 101.49 166.22 100.25 C 166.02 101.61 165.71 102.95 165.29 104.26 C 162.75 105.53 159.53 105.00 157.96 102.54 C 158.43 102.02 159.37 100.99 159.85 100.47 Z" />
<path fill="#c0a061" opacity="1.00" d=" M 199.25 109.24 C 199.75 109.77 199.75 109.77 199.25 109.24 Z" />
<path fill="#c0a061" opacity="1.00" d=" M 36.42 170.38 C 36.90 170.41 37.85 170.45 38.32 170.47 C 39.26 171.93 40.22 173.38 41.16 174.84 C 42.57 173.01 44.03 171.21 45.59 169.50 C 46.26 173.37 46.46 177.36 45.37 181.19 C 44.40 178.56 44.39 175.75 44.52 173.00 C 43.42 174.66 42.29 176.29 41.15 177.93 C 40.20 176.34 39.26 174.75 38.33 173.15 C 38.13 175.68 37.90 178.20 37.49 180.70 C 35.68 177.58 36.62 173.81 36.42 170.38 Z" />
<path fill="#c0a061" opacity="1.00" d=" M 51.65 170.33 C 51.88 170.37 52.34 170.43 52.57 170.46 C 54.66 173.66 56.05 177.26 57.38 180.83 C 56.28 179.97 55.19 179.10 54.12 178.21 C 52.67 178.22 51.22 178.23 49.78 178.26 C 49.14 178.95 47.86 180.34 47.22 181.04 C 48.26 177.32 49.54 173.60 51.65 170.33 M 50.16 176.40 C 51.46 176.41 52.77 176.42 54.07 176.42 C 53.52 175.23 52.95 174.04 52.34 172.88 C 51.53 173.99 50.83 175.19 50.16 176.40 Z" />
<path fill="#c0a061" opacity="1.00" d=" M 60.71 170.78 C 62.95 170.13 65.68 170.27 67.21 172.31 C 65.32 172.13 63.43 171.90 61.55 171.64 C 60.65 173.04 59.78 174.46 58.91 175.88 C 60.21 176.95 61.26 178.72 63.13 178.78 C 64.20 178.41 65.22 177.95 66.20 177.38 C 64.86 176.61 63.52 175.84 62.18 175.08 C 63.98 174.91 65.78 174.76 67.59 174.62 C 67.23 176.23 66.97 177.89 66.40 179.45 C 62.85 181.19 58.95 179.63 57.17 176.22 C 58.10 174.31 58.40 171.58 60.71 170.78 Z" />
<path fill="#c0a061" opacity="1.00" d=" M 68.59 170.31 C 71.02 170.29 73.44 170.27 75.86 170.27 C 75.88 170.64 75.92 171.37 75.94 171.74 C 74.16 171.70 72.38 171.66 70.60 171.61 C 70.43 172.30 70.11 173.68 69.94 174.37 C 72.02 174.45 74.17 174.46 76.04 175.51 C 74.05 175.84 72.04 176.10 70.03 176.32 C 70.13 176.96 70.33 178.24 70.43 178.88 C 72.26 178.83 74.09 178.77 75.91 178.72 C 75.85 179.52 75.72 181.10 75.65 181.90 C 75.56 181.37 75.37 180.31 75.28 179.77 C 73.93 180.37 72.64 181.10 71.27 181.66 C 70.41 181.04 69.55 180.42 68.68 179.82 C 68.58 176.65 68.58 173.48 68.59 170.31 Z" />
<path fill="#c0a061" opacity="1.00" d=" M 81.15 170.17 C 83.89 170.19 86.76 170.15 89.13 171.73 C 88.87 172.77 88.61 173.81 88.36 174.86 C 88.69 176.19 89.04 177.53 89.17 178.91 C 86.97 180.81 83.90 180.09 81.24 180.28 C 81.19 176.91 81.17 173.54 81.15 170.17 M 82.60 171.27 C 82.76 172.19 83.07 174.03 83.22 174.95 C 84.93 174.44 86.63 173.86 88.26 173.12 C 86.39 172.45 84.50 171.85 82.60 171.27 M 82.79 176.04 C 82.75 176.75 82.67 178.18 82.64 178.89 C 84.25 178.76 85.86 178.62 87.48 178.48 C 87.54 177.96 87.67 176.91 87.74 176.38 C 86.09 176.26 84.44 176.15 82.79 176.04 Z" />
<path fill="#c0a061" opacity="1.00" d=" M 90.80 170.26 C 92.99 170.35 95.20 170.25 97.36 170.66 C 99.70 172.29 98.57 175.27 97.01 177.00 C 97.68 178.28 98.35 179.55 98.99 180.84 C 97.19 179.54 95.63 177.97 93.96 176.52 C 91.90 176.54 92.68 179.00 92.20 180.30 L 90.74 180.38 C 90.76 177.01 90.77 173.64 90.80 170.26 M 92.46 172.19 C 92.44 172.86 92.40 174.20 92.38 174.87 C 93.90 174.83 95.42 174.78 96.94 174.74 C 96.74 173.67 96.53 172.61 96.33 171.55 C 95.04 171.76 93.75 171.98 92.46 172.19 Z" />
<path fill="#c0a061" opacity="1.00" d=" M 117.87 176.87 C 118.18 174.42 117.48 171.49 119.43 169.56 C 119.99 173.39 119.85 177.28 119.36 181.11 C 116.99 178.55 114.78 175.84 112.64 173.08 C 112.67 175.35 112.69 177.63 112.72 179.91 C 112.24 179.91 111.28 179.90 110.80 179.90 C 110.76 176.44 110.97 172.98 111.63 169.59 C 113.89 171.85 115.95 174.31 117.87 176.87 Z" />
<path fill="#c0a061" opacity="1.00" d=" M 121.89 170.10 C 124.14 170.39 126.58 170.25 128.64 171.35 C 131.57 173.32 131.07 178.38 127.79 179.72 C 125.81 180.30 123.72 180.21 121.69 180.38 C 121.72 176.95 121.79 173.52 121.89 170.10 M 123.42 179.12 C 124.91 178.74 126.52 178.64 127.88 177.88 C 129.26 176.55 128.81 174.41 128.14 172.86 C 126.67 172.17 125.10 171.75 123.57 171.24 C 123.47 173.87 123.43 176.49 123.42 179.12 Z" />
<path fill="#c0a061" opacity="1.00" d=" M 136.28 170.21 C 136.77 170.30 137.77 170.49 138.26 170.58 C 139.18 171.99 140.09 173.40 140.99 174.82 C 142.38 172.95 143.85 171.14 145.57 169.56 C 145.74 173.46 146.57 177.61 144.85 181.29 C 144.30 178.58 144.18 175.82 144.11 173.08 C 143.11 174.63 142.10 176.17 141.08 177.71 C 140.04 176.35 139.00 175.00 137.97 173.65 C 137.75 176.05 138.21 178.74 136.59 180.76 C 136.19 177.26 136.24 173.73 136.28 170.21 Z" />
<path fill="#c0a061" opacity="1.00" d=" M 147.04 180.65 C 148.39 176.81 149.37 172.57 152.38 169.64 C 153.91 173.28 156.37 176.75 156.44 180.83 C 155.92 180.14 154.88 178.76 154.36 178.07 C 151.46 177.38 148.96 178.50 147.04 180.65 M 150.32 176.39 C 151.43 176.43 152.54 176.48 153.65 176.53 C 153.06 175.21 152.49 173.88 151.92 172.56 C 151.39 173.83 150.86 175.11 150.32 176.39 Z" />
<path fill="#c0a061" opacity="1.00" d=" M 158.40 170.32 C 161.11 170.31 163.88 170.36 166.40 171.49 C 166.39 172.37 166.38 174.13 166.37 175.01 C 165.69 175.48 165.01 175.95 164.33 176.42 C 164.99 177.88 165.64 179.34 166.27 180.81 C 164.43 179.27 162.63 177.69 160.79 176.17 C 160.21 177.89 159.56 179.58 158.83 181.24 C 158.28 177.62 158.41 173.96 158.40 170.32 M 160.12 171.62 C 160.13 172.61 160.16 174.58 160.18 175.57 C 161.67 175.27 163.18 175.01 164.63 174.51 C 165.74 171.40 162.11 172.02 160.12 171.62 Z" />
<path fill="#c0a061" opacity="1.00" d=" M 168.46 169.37 C 169.53 171.08 169.81 173.08 170.00 175.06 C 171.77 173.04 173.58 170.86 176.20 169.96 C 175.07 171.58 173.88 173.16 172.65 174.72 C 174.08 176.67 175.45 178.66 176.61 180.79 C 174.49 179.68 172.90 177.90 171.44 176.07 C 171.00 176.29 170.10 176.73 169.66 176.94 C 169.62 177.95 169.55 179.96 169.52 180.97 C 166.48 177.90 168.16 173.15 168.46 169.37 Z" />
<path fill="#c0a061" opacity="1.00" d=" M 177.76 170.22 C 180.23 170.22 182.72 170.18 185.17 170.55 C 185.06 170.85 184.85 171.46 184.74 171.76 C 182.85 172.16 180.91 172.17 179.00 172.34 C 179.14 172.85 179.41 173.88 179.54 174.39 C 181.19 174.44 182.84 174.49 184.49 174.55 L 184.32 176.11 C 182.63 176.12 180.94 176.14 179.26 176.16 C 179.30 176.79 179.39 178.04 179.43 178.67 C 181.53 178.77 183.62 178.88 185.71 179.09 C 183.38 180.73 180.44 180.15 177.79 180.30 C 177.80 176.94 177.79 173.58 177.76 170.22 Z" />
<path fill="#c0a061" opacity="1.00" d=" M 186.01 170.62 C 188.66 170.20 191.36 170.29 194.04 170.29 C 194.08 170.63 194.16 171.31 194.20 171.65 C 193.45 171.71 191.97 171.83 191.22 171.89 C 191.13 174.94 190.93 177.99 190.44 181.00 C 188.77 178.36 189.38 175.13 189.25 172.18 C 188.51 172.07 187.02 171.85 186.27 171.74 C 186.21 171.46 186.08 170.90 186.01 170.62 Z" />
<path fill="#c0a061" opacity="1.00" d=" M 195.54 180.38 C 195.69 176.75 194.60 172.66 196.65 169.40 C 197.09 172.65 197.56 176.00 196.96 179.26 C 196.61 179.54 195.90 180.10 195.54 180.38 Z" />
<path fill="#c0a061" opacity="1.00" d=" M 199.53 169.73 C 202.10 171.78 204.29 174.24 206.21 176.90 C 206.24 174.37 206.38 171.84 206.92 169.37 C 208.82 172.93 208.06 177.06 208.01 180.91 C 205.12 178.80 203.00 175.90 201.23 172.83 C 201.10 175.53 200.86 178.22 200.44 180.89 C 198.40 177.53 199.52 173.42 199.53 169.73 Z" />
<path fill="#c0a061" opacity="1.00" d=" M 210.41 172.35 C 212.32 169.58 216.40 170.01 218.72 172.01 C 216.39 172.20 214.05 172.29 211.72 172.45 C 211.49 173.60 211.27 174.76 211.04 175.93 C 211.57 176.80 212.11 177.68 212.64 178.57 C 213.91 178.59 215.18 178.62 216.46 178.64 C 216.62 178.18 216.94 177.26 217.10 176.80 C 216.27 176.33 214.62 175.38 213.80 174.91 C 215.44 174.87 217.09 174.84 218.75 174.84 C 218.65 176.36 218.56 177.89 218.48 179.42 C 215.87 180.17 213.19 180.20 210.60 179.42 C 210.09 177.13 208.61 174.45 210.41 172.35 Z" />
<path fill="#c0a061" opacity="1.00" d=" M 99.62 180.77 C 100.86 176.84 102.22 172.84 104.90 169.63 C 106.80 173.20 108.54 176.90 109.52 180.85 C 108.58 179.89 107.67 178.91 106.76 177.93 C 105.52 177.86 104.28 177.80 103.05 177.74 C 101.92 178.76 100.78 179.77 99.62 180.77 M 104.53 172.15 C 104.05 173.60 103.57 175.06 103.10 176.52 C 103.81 176.51 105.23 176.48 105.94 176.46 C 105.47 175.02 105.00 173.58 104.53 172.15 Z" />
</g>
</svg>
