<svg width="340" height="197pt" viewBox="0 0 255 197" xmlns="http://www.w3.org/2000/svg"><path fill="#fffffe" d="M104.53 172.15c.47 1.43.94 2.87 1.41 4.31-.71.02-2.13.05-2.84.06.47-1.46.95-2.92 1.43-4.37z"/><g fill="#c0a061"><path d="M200.7 42.53c7.48-2.73 15.61-3.84 23.53-2.77 2.95.36 6 1.42 8.94.36 3.81-1 8.6-2.02 11.9.74 1.8 1.69.48 3.98-.12 5.89-1.75.29-3.5.58-5.25.84-.23-1.06-.45-2.12-.67-3.18.88-.1 2.62-.29 3.49-.39-.77.29-2.32.88-3.09 1.17 2.14 3.73 7.21-.32 5.22-3.66-3.66-3.13-8.81-1.49-12.85-.11 4.29 3.17 5.74 9.92 1.41 13.68a116.993 116.993 0 0 1-17.95 15.3c-1.92 1.38-4.37.58-6.46.12-5.09-1.55-9.98-3.71-14.61-6.31-.04 5.04-.06 10.09.07 15.13 2.96-.93 5.76-2.33 8.77-3.1 3.3.4 6.14 2.35 9.06 3.81-2.76.97-5.47 2.24-8.4 2.64-3.2-.24-6.26-1.36-9.43-1.84-.08 4.83-.08 9.67-.09 14.5 5.72-.93 11.59-1.27 17.28 0 7.59 1.47 15.24-.18 22.6-1.98-5.72 3.85-12.01 6.7-18.15 9.79 2.12 3.09 4.38 7.16 2.15 10.81-4.42 6.51-9.35 12.7-14.68 18.47-2.24 2.72-5.92 3.06-9.1 3.87-.06 5.37-.11 10.76.12 16.13 1.07-.91 3.02-1.2 3.4-2.69-.17-2.21-1.16-4.24-1.69-6.36 1.63 1.89 3.71 3.76 3.92 6.41-1.61 1.55-3.48 2.78-5.27 4.11.59.51 1.17 1.02 1.77 1.53-1.32 1.5-2.55 3.07-3.7 4.7a66.075 66.075 0 0 0-4.11-5.17c.75-.46 1.51-.92 2.26-1.37-1.93-1.18-3.86-2.35-5.79-3.53 1.28-2.37 2.62-4.7 4.07-6.97-.37 2.3-.98 4.57-1.05 6.91.75.89 1.62 1.66 2.46 2.46.2-5.38.62-10.75.55-16.13-9.98.19-19.92-.9-29.65-3.12-.14 5.84-5.01 9.67-9.07 13.13-6.19 1.02-12.68.1-18.83-1.11 2.11 6.9-6.13 13.39-12.62 11.73-4.58-1.3-9.07-3.07-13.12-5.61-1.45-1.63-2.96-3.52-5.21-3.99-2.3.23-4.25 1.71-6.29 2.66 1.6.71 3.22 1.41 4.83 2.1-1.57.08-3.15.16-4.73.22-.3 2.07-.55 4.15-.79 6.23 1.31-.14 2.62-.29 3.94-.43-.09 2-.16 4.01-.21 6.02-1.99-1.17-3.97-2.34-5.99-3.45.53-.29 1.59-.88 2.12-1.17-.53-3.04-.5-6.2 1.16-8.9-4.27-3.77-10.1-4.74-15.55-3.45-1.86-.16-2.08 1.87-2.81 3.1 5.46 1.85 11.15.58 16.71.15-5.5 2-11.51 1.68-17.14.45.47-1.39-.17-3.74 1.76-4.09 5.57-1.24 11.53-.55 16.57 2.19 1.95-.93 3.89-1.87 5.83-2.8-4.75-3.42-9.17-7.29-13.85-10.8-1.58.11-3.16.22-4.74.31l3.84-1.08c-5.25-3.83-11.67-5.99-18.22-5.2 7.52-3.44 16-1.26 22.96 2.42 1.83 1.25 4.01.5 5.99.2-6.32-3.96-13.17-6.96-19.76-10.43-2.46-1.16-4.82-2.63-7.47-3.28-2.87-.21-5.72.35-8.57.46 2.27-.54 4.57-1 6.86-1.49-6.25-3.29-14.13-7.48-21.01-3.49-.15.94-.43 2.83-.58 3.77-.23-.64-.7-1.92-.94-2.56.39-1.11.77-2.21 1.15-3.31 5.58-2.23 11.78-2.91 17.62-1.31 4.05.79 7.67 2.93 11.66 3.9 2.9-.23 5.57-1.51 8.32-2.32-7.11-3.83-14.57-6.93-22.14-9.73-7.27 3.9-15.67 4.02-23.68 3.16 7.32-.35 15.56.93 21.74-3.97-7.03-2.83-14.5-6.2-22.26-5.05-2.58.3-4.31 2.38-5.89 4.22 1.15 1.32 2.29 2.66 3.4 4.02-2.11-1-3.94-2.44-5.18-4.44 1.51-3.12 3.54-6.13 7.03-7.22-.44-.42-.89-.84-1.34-1.25-1.28 1.6-2.76 3.01-4.44 4.22 2.52-5.79 7.7-11.67 5.01-18.38-.91-.25-2.74-.77-3.65-1.03 4.08-3.52 7.8-7.44 11.28-11.55-.78-.11-2.34-.34-3.13-.45 6.61-2.06 12.05-6.5 16.96-11.22-2.03-.29-4.04-.61-6.06-.95 4.2-.26 8.42-.12 12.61.23-.34.59-1.03 1.78-1.38 2.37 1.37 3.88 3.44 7.49 4.79 11.39l.74-2.88c.52.49 1.04.98 1.56 1.48-2.97 2.06-1.88 5.98-2.1 9.03.36 6.31-.52 12.57-1.17 18.82 5.48 1.5 10.91 3.17 16.41 4.62 3.17.93 6.56 1.52 9.29 3.52l.54-.67c4.95 2.84 10.62 3.67 16 5.31 10.24 4.28 20.85 7.93 31.85 9.64 4.36.73 8.47 2.45 12.82 3.25 12.1 1.87 24.37 3.11 36.61 1.77l.15-6.22c-1.65.2-3.3.41-4.95.58 1.52-.54 3.04-1.07 4.56-1.6-2.65-1.37-5.35-2.64-7.97-4.04 2.82.88 5.58 1.94 8.38 2.9.43-4.35-4.47-4.04-7.42-4.73-2.2 1.79-4.27 4.31-7.29 4.59.75-.89 1.86-1.37 2.81-2.02-.16-.28-.49-.84-.65-1.12 1.53-.49 3.05-1 4.58-1.5-.55-2.08-1.11-4.16-1.61-6.25 2.25-1.88 4.63-3.59 7.09-5.18-1.63-.15-3.26-.29-4.89-.42-2.69 4.68-6.55 8.55-10.96 11.62 1.73.17 3.46.36 5.19.58-5.51.61-12.29-.52-16.5 3.83.08.28.26.86.34 1.14 4.2 2.04 8.96.26 13.34-.11-1.86 1.99-5.26 1.39-7.8 1.62-2.27-.26-5.49.51-6.89-1.8.43-1.06.89-2.12 1.38-3.16-4.75-.18-9.34-1.45-13.89-2.73 1.32 2.17 2.75 4.27 4.22 6.34-3.69-3.19-5.5-8.17-10.16-10.29-3.61 3.23-6.94 6.76-9.8 10.67-5.9-.35-7.25-6.95-10.85-10.48l-3.48-.24c.73-.46 2.19-1.36 2.92-1.82.06-6.48-.03-12.95-.03-19.43-2.86.64-5.6 1.71-8.44 2.39-2.28-.56-4.4-1.6-6.56-2.5-.28 3.15.35 6.89-2.02 9.4-2.89 3.1-6.14 5.88-8.9 9.12-2.33-.41-5.11-.02-6.91-1.88-2.52-2.21-5.09-4.37-7.81-6.35-.25-8.76 1.4-17.64-.89-26.26-3.26 1.03-6.48 2.18-9.78 3.06 3.08-1.44 6.26-2.65 9.36-4.05-.72-1.34-1.4-2.71-2.39-3.87-1.52.71-2.92 1.64-4.33 2.55l-2.45.88c3.57-2.84 6.47-6.38 9.81-9.47 1.27 1.14 2.82.7 3.63-.7.14.2.43.59.57.78.22-2.12 1.55-3.05 3.57-2.7 11.29-.32 22.01-3.93 32.69-7.21-8.55 3.93-17.86 6.13-27.22 6.96-2.9.21-5.57 1.39-8.29 2.31 1.32 2.15 2.7 4.25 4.11 6.33 1.48-.19 2.96-.38 4.45-.55-1.21.57-2.43 1.12-3.65 1.67.73 2.72 1.76 5.37 2.21 8.15.81 6.37-.44 12.83.59 19.17.42 3.02 2.49 5.37 4.3 7.67 2.77-2.56 6.76-5.05 5.74-9.45-2.87-2.66-6.13-4.86-8.97-7.54l-.08-1.71c3.87-4.29 8.64-7.66 12.46-12.01-3.56-1.35-7.22-2.51-11.04-2.72.01.99.05 2.98.06 3.97 2.2.3 4.15-.61 5.73-2.08-.29 1.05-.57 2.1-.84 3.16-2.41.19-5.6.96-7.09-1.59-2.16-3.45 1.39-7.41 4.84-8.01 8.09-1.7 16.09 1.46 24.14 1.97 5.06.34 11.39 1.84 14.97-2.86-5.58-6.65-15.06-6.99-23.03-6.08-5.8.53-10.88 3.61-16.39 5.2 6.25-4.26 13.96-5.94 21.4-6.48 6.15-.33 12.72.89 17.52 4.99 2.16 2.07 3.63 5.39 2.62 8.35-1.95 2.79-5.43 3.62-8.46 4.67.11 10.52-.06 21.04.3 31.56 2.01-.37 4.03-.73 6.04-1.09-5.86-10.38-3.64-23.61 3.12-33 2.41-2.88 5.56-4.99 8.5-7.29 6.68-1.02 13.44-1.31 20.18-1.6-1.81.34-3.63.65-5.46.91 3.89 1.06 7.54 2.78 11.15 4.52l.54-2.51c.72 1.25 1.17 2.62 1.58 4 2.27 1.34 4.87 1.75 7.47 1.76.17-.74.52-2.23.69-2.97.63 1.08 1.25 2.16 1.88 3.24-1.97 1.92-4.5 2.97-7.17 3.47 1.11 2.07 1.79 4.33 2.12 6.65-2.49-.89-4.73-2.67-7.37-3.03-4.75 4.76-9.82 9.22-14.61 13.95 6.18-2.77 12.43-5.4 18.67-8.04 4.5 4.08 6.84 9.97 7.1 15.98 1.85.27 3.71.53 5.58.78-1.16-7.11-4.79-13.71-10.86-17.77 4.17-4.59 8.46-9.07 12.71-13.58-4.32-3.63-8.32-7.64-11.62-12.23l-3.42.44c-.03 2.32-.1 4.63-.2 6.94-.49.15-1.49.45-1.99.6 1.01-2.17 1.32-4.55 1.55-6.91-3.37.66-6.73 1.31-10.09 2.01 1.55-.98 3.02-2.1 3.84-3.79.14.56.4 1.69.54 2.25 1.66-.41 3.33-.81 5-1.22-1.71-5.59-8.35-6.73-13.39-5.85-3.96.75-5.27 6.3-2.47 9.04 2.1-.34 4.2-.64 6.32-.87-1.78.62-3.57 1.17-5.37 1.73-2.52.04-5.04.11-7.56.1 1.56-.36 3.14-.69 4.71-1.01-.05-2.44-1.12-5.33.67-7.4 2.52-3.46 7.59-3.22 11.24-1.97 3.8 1.05 5.72 5.32 9.8 5.74-3.11-5.07-8.92-7.43-14.44-8.85-5.02-1.18-10.9-.95-14.95 2.62-3.05 2.47-3.01 6.72-3.68 10.24.95.26 2.87.8 3.82 1.06-5.11.75-10.15-1.31-14.74-3.31-.04-.18-.13-.55-.17-.74 3.48.89 6.73 2.51 10.16 3.57.7-4.3 1.19-9.4 5.15-12.07 7.45-5.16 17.46-3.83 25.43-.63 3.77 1.31 6.78 4.84 10.92 4.89l.67-.27c-2.18-1.65-4.54-3.02-6.72-4.64 2.88 1.12 5.55 2.72 8.1 4.46.5-.59 1.01-1.19 1.51-1.79.53 1.26 1.16 2.47 1.88 3.63 1.36.44 2.72.93 4.06 1.47-2.68-.6-5.3-2.28-8.12-1.66l-.37 1.1c8.01 6.1 17.97 10.03 28.1 10.14 6.75-.76 14.72-2.95 17.64-9.85-3.61 1.81-7.53 3.59-11.69 2.95-3.69-.03-7.07-3.03-10.78-1.63-4.78 1.45-9.9.9-14.61-.57 5.62.43 11.6 1.71 16.89-1.02-2.45-1.32-4.79-2.95-7.48-3.73-2.5-.43-5.05-.04-7.57-.11 5.42-1.85 11.14.02 15.66 3.15 2.12-.58 4.24-1.17 6.38-1.7-2.09.87-4.19 1.72-6.1 2.94 4.08 1.63 8.59 3.23 12.98 1.7 1.73-.71 4.75-.88 4.65-3.36-3.69-1.23-7.62-1.24-11.43-1.88 4.7-.27 9.32.65 13.87 1.7-1.06-2.48-2.3-4.87-3.7-7.16-3.05.96-6.02 2.14-9.01 3.28 2.2-1.26 4.42-2.47 6.58-3.79-9.46-2.92-19.15-.45-28.56 1.19M46.92 65.95c-1.83 2.45-1.44 5.66-1.68 8.52 4.15-.83 8.26-2.05 12.52-2.21-3.95 1.46-8.1 2.28-12.27 2.82-.13 4.83.12 9.66.38 14.49-2.47.55-4.95 1.06-7.45 1.44.6.43 1.19.85 1.8 1.26 8.3-3.39 17.33-.82 25.92-.43-2.39-4.46-7.15-6.39-11.75-7.75.04-.24.13-.72.17-.96 1.98-1.59 4.04-3.53 4.03-6.28.11-6.08-.45-12.6-4.11-17.7-2.65 2.1-5.56 4.02-7.56 6.8m108.9-4.35c-3.09 2.67-6.46 5.25-8.26 9.03-4.22 7.71-2.9 17.05.12 24.94 7.42-7.26 14.97-14.4 22.09-21.94 2.31-2.51.94-6.2-1.07-8.41-2.82-4.11-8.32-5.64-12.88-3.62m-50.18 18.13c2.42-1.07 4.79-2.27 7.34-3.03 2.86.59 5.56 1.78 8.47 2.22-.04-3.88-.06-7.75.08-11.62-4.46-.67-8.99-1.6-13.51-1.28-4.22 3.22-2.45 9.18-2.38 13.71m55.79 7.79c-5.64-.07-9.25 4.72-12.78 8.38 8.7-1.57 17.54-1.78 26.35-1.89-1.11-6.16-8.4-7.37-13.57-6.49m-13.02 9.54c1.8 3.09 5.13.76 7.75.47 3.62-1.05 7.27.28 10.29 2.27-4.77-1.31-10.2-2.73-14.75.03-.85.98.7 1.64 1.18 2.35 2.98 2.62 6.7 4.42 10.52 5.43 4.26.33 8.88-1.26 11.69-4.57 2.07-2.34.92-5.66.76-8.42-9.16.64-18.48.07-27.44 2.44m45.93 1.31c.01 3.13-.06 6.27-.12 9.4.9-.08 2.71-.25 3.62-.33-1.56.87-3.03 1.85-4.43 2.96l5.13.2c-1.6.47-3.19.94-4.78 1.42.57.3 1.71.9 2.27 1.21-.43.26-1.3.78-1.73 1.05-.04 1.84-.07 3.68-.1 5.53 6.97-.56 14.52-.97 20.42-5.15 3.5-2.36 3.37-7.9.31-10.56-5.56-4.98-13.35-6.33-20.59-5.73m-63.56 1.89a76.24 76.24 0 0 0 4.86 6.84c1.93-1.76 3.86-3.5 5.75-5.3-1.43-1.02-2.8-2.18-4.42-2.91-2.12.18-4.15.82-6.19 1.37m54.47 4.85c2.09-.86 4.15-1.81 6.16-2.83-.06-.86-.2-2.58-.27-3.45-2.82 1.23-5.81 2.7-5.89 6.28m.47 1.01c1.85.84 3.71 1.66 5.59 2.46.09-1.87.19-3.74.27-5.61-1.96 1.03-3.92 2.08-5.86 3.15M78.47 115.1c5.91 2.93 12.27 4.75 18.41 7.12 5.1 1.72 10.01 4.07 15.26 5.32 4.81.15 9.53-1.28 14.22-2.18-12.39-4.27-25.01-7.87-37.37-12.22-3.59-1.46-7.2.84-10.52 1.96m35.15 13.25c8.11 4.24 17.25 5.85 25.98 8.35 5.96 1.86 12.45 2.35 18.44.35.56-1.08.71-2.3 1.01-3.45-6.07-2.54-12.66-3.24-18.97-4.97-4.01-.82-7.91-2.42-12.04-2.46-4.85.39-9.61 1.47-14.42 2.18m-18.93 4.99c7.41 5.34 14.8 10.85 23.09 14.77 4.22 1.87 9.25 4 13.71 1.55 2.17-.39 1.71-3.38.08-4.21-5.79-3.33-12.83-2.77-19.14-1.48 2.77-.66 5.58-1.25 8.2-2.4-4.38-1.69-8.83-3.18-13.02-5.3-4.11-1.74-8.29-5.18-12.92-2.93z"/><path d="M160.4 50.93c1.35-4.2 6.01-4.21 9.31-2.54-2.1-.05-4.2-.17-6.29-.25-1 .95-2 1.87-3.02 2.79z"/><path d="M164.27 50.23c1.75.41.04 2.48-1.13 1.96-1.78-.43-.07-2.48 1.13-1.96zm-29.59 1.13c.22.33.22.33 0 0zm25.17 49.11c.78.13 1.58.27 2.37.4-.61.3-1.84.89-2.45 1.19-1.39 3.04 3.15 1.92 4.81 1.95.52-1.26 1.07-2.52 1.64-3.76-.2 1.36-.51 2.7-.93 4.01-2.54 1.27-5.76.74-7.33-1.72.47-.52 1.41-1.55 1.89-2.07zm39.4 8.77c.5.53.5.53 0 0zM36.42 170.38c.48.03 1.43.07 1.9.09.94 1.46 1.9 2.91 2.84 4.37 1.41-1.83 2.87-3.63 4.43-5.34.67 3.87.87 7.86-.22 11.69-.97-2.63-.98-5.44-.85-8.19-1.1 1.66-2.23 3.29-3.37 4.93-.95-1.59-1.89-3.18-2.82-4.78-.2 2.53-.43 5.05-.84 7.55-1.81-3.12-.87-6.89-1.07-10.32zm15.23-.05c.23.04.69.1.92.13 2.09 3.2 3.48 6.8 4.81 10.37-1.1-.86-2.19-1.73-3.26-2.62-1.45.01-2.9.02-4.34.05-.64.69-1.92 2.08-2.56 2.78 1.04-3.72 2.32-7.44 4.43-10.71m-1.49 6.07c1.3.01 2.61.02 3.91.02-.55-1.19-1.12-2.38-1.73-3.54-.81 1.11-1.51 2.31-2.18 3.52zm10.55-5.62c2.24-.65 4.97-.51 6.5 1.53-1.89-.18-3.78-.41-5.66-.67-.9 1.4-1.77 2.82-2.64 4.24 1.3 1.07 2.35 2.84 4.22 2.9 1.07-.37 2.09-.83 3.07-1.4-1.34-.77-2.68-1.54-4.02-2.3 1.8-.17 3.6-.32 5.41-.46-.36 1.61-.62 3.27-1.19 4.83-3.55 1.74-7.45.18-9.23-3.23.93-1.91 1.23-4.64 3.54-5.44zm7.88-.47c2.43-.02 4.85-.04 7.27-.04l.08 1.47c-1.78-.04-3.56-.08-5.34-.13-.17.69-.49 2.07-.66 2.76 2.08.08 4.23.09 6.1 1.14-1.99.33-4 .59-6.01.81l.4 2.56c1.83-.05 3.66-.11 5.48-.16-.06.8-.19 2.38-.26 3.18-.09-.53-.28-1.59-.37-2.13-1.35.6-2.64 1.33-4.01 1.89-.86-.62-1.72-1.24-2.59-1.84-.1-3.17-.1-6.34-.09-9.51zm12.56-.14c2.74.02 5.61-.02 7.98 1.56-.26 1.04-.52 2.08-.77 3.13.33 1.33.68 2.67.81 4.05-2.2 1.9-5.27 1.18-7.93 1.37-.05-3.37-.07-6.74-.09-10.11m1.45 1.1c.16.92.47 2.76.62 3.68 1.71-.51 3.41-1.09 5.04-1.83-1.87-.67-3.76-1.27-5.66-1.85m.19 4.77c-.04.71-.12 2.14-.15 2.85 1.61-.13 3.22-.27 4.84-.41.06-.52.19-1.57.26-2.1-1.65-.12-3.3-.23-4.95-.34zm8.01-5.78c2.19.09 4.4-.01 6.56.4 2.34 1.63 1.21 4.61-.35 6.34.67 1.28 1.34 2.55 1.98 3.84-1.8-1.3-3.36-2.87-5.03-4.32-2.06.02-1.28 2.48-1.76 3.78l-1.46.08c.02-3.37.03-6.74.06-10.12m1.66 1.93l-.08 2.68c1.52-.04 3.04-.09 4.56-.13-.2-1.07-.41-2.13-.61-3.19-1.29.21-2.58.43-3.87.64zm25.41 4.68c.31-2.45-.39-5.38 1.56-7.31.56 3.83.42 7.72-.07 11.55-2.37-2.56-4.58-5.27-6.72-8.03.03 2.27.05 4.55.08 6.83-.48 0-1.44-.01-1.92-.01-.04-3.46.17-6.92.83-10.31 2.26 2.26 4.32 4.72 6.24 7.28zm4.02-6.77c2.25.29 4.69.15 6.75 1.25 2.93 1.97 2.43 7.03-.85 8.37-1.98.58-4.07.49-6.1.66.03-3.43.1-6.86.2-10.28m1.53 9.02c1.49-.38 3.1-.48 4.46-1.24 1.38-1.33.93-3.47.26-5.02-1.47-.69-3.04-1.11-4.57-1.62-.1 2.63-.14 5.25-.15 7.88zm12.86-8.91c.49.09 1.49.28 1.98.37.92 1.41 1.83 2.82 2.73 4.24 1.39-1.87 2.86-3.68 4.58-5.26.17 3.9 1 8.05-.72 11.73-.55-2.71-.67-5.47-.74-8.21-1 1.55-2.01 3.09-3.03 4.63-1.04-1.36-2.08-2.71-3.11-4.06-.22 2.4.24 5.09-1.38 7.11-.4-3.5-.35-7.03-.31-10.55zm10.76 10.44c1.35-3.84 2.33-8.08 5.34-11.01 1.53 3.64 3.99 7.11 4.06 11.19l-2.08-2.76c-2.9-.69-5.4.43-7.32 2.58m3.28-4.26c1.11.04 2.22.09 3.33.14-.59-1.32-1.16-2.65-1.73-3.97-.53 1.27-1.06 2.55-1.6 3.83zm8.08-6.07c2.71-.01 5.48.04 8 1.17-.01.88-.02 2.64-.03 3.52l-2.04 1.41c.66 1.46 1.31 2.92 1.94 4.39-1.84-1.54-3.64-3.12-5.48-4.64-.58 1.72-1.23 3.41-1.96 5.07-.55-3.62-.42-7.28-.43-10.92m1.72 1.3c.01.99.04 2.96.06 3.95 1.49-.3 3-.56 4.45-1.06 1.11-3.11-2.52-2.49-4.51-2.89zm8.34-2.25c1.07 1.71 1.35 3.71 1.54 5.69 1.77-2.02 3.58-4.2 6.2-5.1-1.13 1.62-2.32 3.2-3.55 4.76 1.43 1.95 2.8 3.94 3.96 6.07-2.12-1.11-3.71-2.89-5.17-4.72-.44.22-1.34.66-1.78.87-.04 1.01-.11 3.02-.14 4.03-3.04-3.07-1.36-7.82-1.06-11.6zm9.3.85c2.47 0 4.96-.04 7.41.33-.11.3-.32.91-.43 1.21-1.89.4-3.83.41-5.74.58.14.51.41 1.54.54 2.05 1.65.05 3.3.1 4.95.16l-.17 1.56c-1.69.01-3.38.03-5.06.05.04.63.13 1.88.17 2.51 2.1.1 4.19.21 6.28.42-2.33 1.64-5.27 1.06-7.92 1.21.01-3.36 0-6.72-.03-10.08zm8.25.4c2.65-.42 5.35-.33 8.03-.33l.16 1.36-2.98.24c-.09 3.05-.29 6.1-.78 9.11-1.67-2.64-1.06-5.87-1.19-8.82l-2.98-.44c-.06-.28-.19-.84-.26-1.12zm9.53 9.76c.15-3.63-.94-7.72 1.11-10.98.44 3.25.91 6.6.31 9.86-.35.28-1.06.84-1.42 1.12zm3.99-10.65c2.57 2.05 4.76 4.51 6.68 7.17.03-2.53.17-5.06.71-7.53 1.9 3.56 1.14 7.69 1.09 11.54-2.89-2.11-5.01-5.01-6.78-8.08-.13 2.7-.37 5.39-.79 8.06-2.04-3.36-.92-7.47-.91-11.16zm10.88 2.62c1.91-2.77 5.99-2.34 8.31-.34-2.33.19-4.67.28-7 .44-.23 1.15-.45 2.31-.68 3.48.53.87 1.07 1.75 1.6 2.64 1.27.02 2.54.05 3.82.07l.64-1.84c-.83-.47-2.48-1.42-3.3-1.89 1.64-.04 3.29-.07 4.95-.07-.1 1.52-.19 3.05-.27 4.58-2.61.75-5.29.78-7.88 0-.51-2.29-1.99-4.97-.19-7.07zm-110.79 8.42c1.24-3.93 2.6-7.93 5.28-11.14 1.9 3.57 3.64 7.27 4.62 11.22-.94-.96-1.85-1.94-2.76-2.92-1.24-.07-2.48-.13-3.71-.19-1.13 1.02-2.27 2.03-3.43 3.03m4.91-8.62c-.48 1.45-.96 2.91-1.43 4.37.71-.01 2.13-.04 2.84-.06-.47-1.44-.94-2.88-1.41-4.31z"/></g></svg>